<svg xmlns="http://www.w3.org/2000/svg" viewBox="0 0 514 95.5"><defs><style>.cls-1{fill:#77d0ff;}.cls-2{fill:none;stroke:#77d0ff;stroke-miterlimit:10;stroke-width:8px;}</style></defs><title>Asset 2</title><g id="Layer_2" data-name="Layer 2"><g id="Layer_1-2" data-name="Layer 1"><path class="cls-1" d="M514,91.5H319V4H514ZM348.64,72.38H355V29.18h14.83V23.85H333.88v5.33h14.76Zm26.5-48.53V52.44c0,15,7.49,20.73,17.42,20.73,10.52,0,18.36-6.12,18.36-21V23.85h-6.33V52.58c0,10.73-4.61,15.48-11.81,15.48-6.48,0-11.31-4.61-11.31-15.48V23.85ZM427.7,72.38V51.64c0-8.06-.15-13.89-.51-20l.22-.08a154.8,154.8,0,0,0,9.07,16.21l15.41,24.62h6.34V23.85h-5.91V44.16c0,7.56.15,13.46.72,19.94l-.14.07a139.13,139.13,0,0,0-8.71-15.77L428.63,23.85h-6.84V72.38Zm66.6-27.94H475.43V29.11h19.95V23.85H469.17V72.38h27.29V67.13h-21V49.63H494.3Z"/><rect class="cls-2" x="4" y="4" width="316.04" height="87.5"/><path class="cls-1" d="M18.6,24.43a71.83,71.83,0,0,1,12-.94c6.19,0,10.72,1.44,13.6,4a13,13,0,0,1,4.25,10.15c0,4.4-1.29,7.85-3.74,10.37C41.43,51.57,36,53.37,29.9,53.37a21.58,21.58,0,0,1-5-.43V72.38H18.6Zm6.26,23.4a21.08,21.08,0,0,0,5.19.5c7.56,0,12.17-3.67,12.17-10.37,0-6.41-4.54-9.5-11.45-9.5a26.27,26.27,0,0,0-5.91.5Z"/><path class="cls-1" d="M98.38,47.61c0,16.71-10.15,25.56-22.54,25.56C63,73.17,54,63.24,54,48.55c0-15.41,9.58-25.49,22.54-25.49C89.81,23.06,98.38,33.21,98.38,47.61Zm-37.66.79c0,10.37,5.62,19.66,15.48,19.66S91.75,58.92,91.75,47.9c0-9.65-5-19.73-15.48-19.73S60.72,37.75,60.72,48.4Z"/><path class="cls-1" d="M106.51,24.5a89.19,89.19,0,0,1,13.32-1c9,0,15.41,2.09,19.66,6.05s6.84,9.58,6.84,17.42-2.45,14.41-7,18.87-12,7-21.46,7a101.28,101.28,0,0,1-11.38-.57Zm6.27,42.91a39.2,39.2,0,0,0,6.33.36c13.4,0,20.67-7.48,20.67-20.59.07-11.45-6.41-18.72-19.66-18.72a35.47,35.47,0,0,0-7.34.65Z"/><path class="cls-1" d="M188.38,70.8c-2.31,1.15-6.92,2.3-12.82,2.3-13.68,0-24-8.64-24-24.55,0-15.2,10.3-25.49,25.35-25.49,6,0,9.86,1.29,11.52,2.16l-1.51,5.11a22.87,22.87,0,0,0-9.8-2c-11.37,0-18.93,7.28-18.93,20,0,11.88,6.84,19.52,18.65,19.52a25.14,25.14,0,0,0,10.22-2Z"/><path class="cls-1" d="M204.36,57.12l-5,15.26h-6.48l16.49-48.53h7.56l16.56,48.53h-6.7l-5.18-15.26Zm15.91-4.9-4.75-14c-1.08-3.17-1.8-6-2.52-8.86h-.15c-.72,2.88-1.51,5.84-2.44,8.79l-4.76,14Z"/><path class="cls-1" d="M239.71,64.75a22.18,22.18,0,0,0,11.23,3.17c6.41,0,10.15-3.39,10.15-8.28,0-4.54-2.59-7.13-9.14-9.65-7.92-2.81-12.82-6.91-12.82-13.75,0-7.57,6.27-13.18,15.7-13.18a22.11,22.11,0,0,1,10.73,2.37l-1.73,5.12a19.22,19.22,0,0,0-9.22-2.31c-6.62,0-9.14,4-9.14,7.27,0,4.54,2.95,6.77,9.65,9.37C263.33,48,267.5,52,267.5,59.13c0,7.49-5.54,14-17,14-4.68,0-9.79-1.37-12.38-3.09Z"/><path class="cls-1" d="M285.29,29.18H270.52V23.85h35.94v5.33H291.62v43.2h-6.33Z"/><rect class="cls-2" x="323" y="4" width="187" height="87.5"/></g></g></svg>